<?xml version="1.0" encoding="utf-8"?>
<!-- Generator: Adobe Illustrator 20.1.0, SVG Export Plug-In . SVG Version: 6.00 Build 0)  -->
<svg version="1.1" id="Layer_1" xmlns="http://www.w3.org/2000/svg" xmlns:xlink="http://www.w3.org/1999/xlink" x="0px" y="0px"
	 viewBox="0 0 323.1 323" style="enable-background:new 0 0 323.1 323;" xml:space="preserve">
<style type="text/css">
	.st0{fill:#60B5CC;}
	.st1{fill:#F0AD00;}
	.st2{fill:#5A6378;}
	.st3{fill:#7FD13B;}
	.st4{fill:none;stroke:#231F20;stroke-miterlimit:10;}
	.st5{fill:none;stroke:#231F20;stroke-width:0.25;stroke-miterlimit:10;}
	.st6{fill:none;stroke:#060A0E;stroke-width:0.25;stroke-miterlimit:10;}
	.st7{fill:none;stroke:#050907;stroke-width:0.25;stroke-miterlimit:10;}
	.st8{fill:none;stroke:#030605;stroke-width:0.25;stroke-miterlimit:10;}
</style>
<rect x="65.6" y="66.5" transform="matrix(2.256997e-03 -1 1 2.256997e-03 -1.082 158.3655)" class="st0" width="26.5" height="26.4"/>
<polygon class="st0" points="62.2,62.4 0,0 0,124.5 "/>
<polygon class="st1" points="3.2,126.2 20.2,159.6 20.2,109.2 "/>
<polygon class="st0" points="161,0 131,30 299.7,0 "/>
<polygon class="st2" points="20.2,169.2 0,129.3 0,293 "/>
<polygon class="st3" points="53.3,96.4 32.9,96.4 23.6,105.8 23.6,130.7 "/>
<polygon class="st3" points="126,30 156,0 69.4,0 39.4,30 "/>
<polygon class="st1" points="34.6,30 64.6,0 4.6,0 "/>
<polygon class="st2" points="122.6,33.4 38,33.4 64.6,60 "/>
<path class="st4" d="M141.2-0.1"/>
<path class="st4" d="M-1.7,129.3"/>
<polygon class="st3" points="92.1,63.6 92,51.5 64.8,63.6 "/>
<polygon class="st1" points="62.2,93 62.2,67.3 36.3,93 "/>
<circle class="st5" cx="34.6" cy="30" r="3.4"/>
<line class="st5" x1="-14.2" y1="143.6" x2="140.8" y2="-11.4"/>
<line class="st5" x1="-90" y1="-90" x2="90" y2="90"/>
<line class="st5" x1="-27.8" y1="152.3" x2="127.2" y2="-2.7"/>
<circle class="st5" cx="62.2" cy="62.4" r="3.4"/>
<line class="st5" x1="142.1" y1="137.5" x2="-12.9" y2="-17.5"/>
<line class="st5" x1="-44.1" y1="108.7" x2="110.9" y2="-46.3"/>
<line class="st5" x1="-40.5" y1="109.9" x2="114.5" y2="-45.1"/>
<line class="st6" x1="34.6" y1="30" x2="194.4" y2="30"/>
<line class="st5" x1="82.7" y1="73.3" x2="237.7" y2="-81.7"/>
<line class="st6" x1="1.7" y1="33.4" x2="161.5" y2="33.4"/>
<circle class="st5" cx="126" cy="30" r="3.4"/>
<line class="st5" x1="44.3" y1="116.7" x2="199.3" y2="-38.3"/>
<line class="st5" x1="-49.6" y1="31.7" x2="49.6" y2="227.1"/>
<line class="st5" x1="-46.4" y1="28.4" x2="52.8" y2="223.9"/>
<line class="st5" x1="62.2" y1="62.4" x2="62.2" y2="134.4"/>
<line class="st7" x1="62.2" y1="67.3" x2="130.3" y2="67.3"/>
<line class="st8" x1="65.6" y1="62.4" x2="65.6" y2="109.2"/>
<line class="st8" x1="92.1" y1="42.3" x2="92.1" y2="89.2"/>
<circle class="st5" cx="64.3" cy="60.2" r="3.4"/>
<circle class="st5" cx="36.4" cy="93" r="3.4"/>
<line class="st7" x1="31.7" y1="96.4" x2="99.9" y2="96.4"/>
<circle class="st5" cx="20.2" cy="109.7" r="3.4"/>
<line class="st5" x1="23.6" y1="66.9" x2="23.6" y2="138.9"/>
</svg>
