<?xml version="1.0" encoding="utf-8"?>
<!-- Generator: Adobe Illustrator 20.1.0, SVG Export Plug-In . SVG Version: 6.00 Build 0)  -->
<svg version="1.1" id="Layer_1" xmlns="http://www.w3.org/2000/svg" xmlns:xlink="http://www.w3.org/1999/xlink" x="0px" y="0px"
	 viewBox="0 0 323.1 323" style="enable-background:new 0 0 323.1 323;" xml:space="preserve">
<style type="text/css">
	.st0{fill:#60B5CC;}
	.st1{fill:#F0AD00;}
	.st2{fill:#5A6378;}
	.st3{fill:#7FD13B;}
	.st4{fill:none;stroke:#231F20;stroke-miterlimit:10;}
</style>
<rect x="65.6" y="66.5" transform="matrix(2.256997e-03 -1 1 2.256997e-03 -1.082 158.3655)" class="st0" width="26.5" height="26.4"/>
<polygon class="st0" points="62.2,62.4 0,0 0,124.5 "/>
<polygon class="st1" points="3.2,126.2 20.2,159.6 20.2,109.2 "/>
<polygon class="st0" points="161,0 131,30 299.7,0 "/>
<polygon class="st2" points="20.2,169.2 0,129.3 0,293 "/>
<polygon class="st3" points="53.3,96.4 32.9,96.4 23.6,105.8 23.6,130.7 "/>
<polygon class="st3" points="126,30 156,0 69.4,0 39.4,30 "/>
<polygon class="st1" points="34.6,30 64.6,0 4.6,0 "/>
<polygon class="st2" points="122.6,33.4 38,33.4 64.6,60 "/>
<path class="st4" d="M141.2-0.1"/>
<path class="st4" d="M-1.7,129.3"/>
<polygon class="st3" points="92.1,63.6 92,51.5 64.8,63.6 "/>
<polygon class="st1" points="62.2,93 62.2,67.3 36.3,93 "/>
</svg>
