<?xml version="1.0" encoding="utf-8"?>
<!-- Generator: Adobe Illustrator 20.1.0, SVG Export Plug-In . SVG Version: 6.00 Build 0)  -->
<svg version="1.1" id="Layer_1" xmlns="http://www.w3.org/2000/svg" xmlns:xlink="http://www.w3.org/1999/xlink" x="0px" y="0px"
     viewBox="0 0 323.1 323" style="enable-background:new 0 0 323.1 323;" xml:space="preserve">
<style type="text/css">
    .st0{fill:#60B5CC;}
    .st1{fill:#F0AD00;} 
    .st2{fill:#5A6378;}
    .st3{fill:#7FD13B;}
    .st4{fill:none;stroke:#231F20;stroke-miterlimit:10;}
</style>
<rect x="69.8" y="63.8" transform="matrix(2.257003e-03 -1 1 2.257003e-03 5.8494 162.5201)" class="st0" width="29.2" height="29.1"/>
<polygon class="st0" points="63,62 0,0 0,125 "/>
<polygon class="st0" points="0.7,129.2 21.7,170.2 20.2,109.5 "/>
<polygon class="st0" points="177,-0.2 133.7,29.3 303,0.2 "/>
<polygon class="st0" points="20.3,175.3 0.1,135.4 0.1,299.1 "/>
<polygon class="st0" points="53.7,95.7 34,96 23.7,107.3 24,130 "/>
<polygon class="st0" points="127.7,30 169.3,0.4 72.5,0.4 44,29.7 "/>
<polygon class="st0" points="37.2,30 66.7,0 7.3,0.4 "/>
<polygon class="st0" points="125,32.7 41,33.2 67.8,59.1 "/>
<polygon class="st0" points="98.3,60.3 98.7,48.4 70.7,60.9 "/>
<polygon class="st0" points="65.7,92.3 65.7,64.3 37.1,92.7 "/>
</svg>
